<?xml version="1.0" encoding="utf-8"?>
<!-- Generator: Adobe Illustrator 16.0.0, SVG Export Plug-In . SVG Version: 6.00 Build 0)  -->
<!DOCTYPE svg PUBLIC "-//W3C//DTD SVG 1.1//EN" "http://www.w3.org/Graphics/SVG/1.1/DTD/svg11.dtd">
<svg version="1.1" id="Layer_1" xmlns="http://www.w3.org/2000/svg" xmlns:xlink="http://www.w3.org/1999/xlink" x="0px" y="0px"
	 width="841.89px" height="229px" viewBox="0 0 841.89 229" enable-background="new 0 0 841.89 229" xml:space="preserve">
<g id="Layer_7" display="none">
	<path display="inline" fill="#58595B" stroke="#000000" d="M101.944,153.074c-1.959,4.137-4.596,7.764-7.91,10.881
		c-3.314,3.119-7.193,5.594-11.639,7.424s-9.152,2.744-14.125,2.744H51.547c-6.631,0-11.678-1.422-15.143-4.27
		c-3.465-2.849-5.197-6.439-5.197-10.779v-49.217c0-4.881,0.902-9.424,2.711-13.627s4.295-7.896,7.459-11.084
		c3.164-3.186,6.816-5.693,10.961-7.523c4.143-1.83,8.625-2.746,13.447-2.746h18.531V27.49l20.566-0.203v112.668
		C104.883,144.566,103.903,148.939,101.944,153.074z M83.866,87.689c-3.467,0-6.367-0.033-8.703-0.102
		c-2.336-0.069-4.482,0-6.439,0.203c-1.959,0.203-3.768,0.611-5.424,1.221c-1.658,0.609-3.391,1.592-5.199,2.947
		c-2.563,1.764-4.258,3.967-5.086,6.611c-0.828,2.644-1.242,5.525-1.242,8.643v53.896c3.918,0.406,8.174,0.508,12.77,0.305
		c4.594-0.203,8.699-1.523,12.316-3.965c3.014-2.033,4.936-4.271,5.764-6.711c0.828-2.441,1.244-5.355,1.244-8.746L83.866,87.689
		L83.866,87.689z"/>
	<path display="inline" fill="#58595B" stroke="#000000" d="M210.875,186.123c-1.809,4.203-4.293,7.863-7.457,10.982
		c-3.164,3.114-6.855,5.59-11.074,7.422c-4.219,1.83-8.814,2.746-13.785,2.746H160.93V194.46c3.314,0,6.139,0.033,8.475,0.103
		c2.336,0.065,4.445,0,6.328-0.203c1.883-0.203,3.617-0.611,5.199-1.221c1.582-0.611,3.275-1.527,5.084-2.746
		c2.711-1.763,4.557-4,5.537-6.711c0.979-2.714,1.469-5.627,1.469-8.744v-3.256c-4.973,1.897-9.869,2.848-14.689,2.848h-17.629
		c-6.629,0-11.602-1.56-14.916-4.678c-3.314-3.117-4.971-6.914-4.971-11.39V75.08h19.887v86.84c3.314,0,6.102,0,8.363,0
		c2.41,0,4.557-0.102,6.439-0.305c1.882-0.203,3.617-0.609,5.199-1.219c1.582-0.61,3.275-1.525,5.084-2.746
		c2.561-1.898,4.369-4.103,5.424-6.609c1.055-2.507,1.582-5.391,1.582-8.645V75.08l20.793,0.203v97.213
		C213.588,177.377,212.684,181.92,210.875,186.123z"/>
	<path display="inline" fill="#58595B" stroke="#000000" d="M301.728,174.326V87.689c-3.467,0-6.367-0.033-8.703-0.102
		c-2.336-0.069-4.482,0-6.439,0.203c-1.959,0.203-3.768,0.611-5.424,1.221c-1.658,0.609-3.391,1.592-5.199,2.947
		c-2.563,1.764-4.258,3.967-5.086,6.611s-1.242,5.525-1.242,8.643v67.113l-20.564-0.203v-64.266c0-4.881,0.902-9.424,2.711-13.627
		c1.809-4.203,4.295-7.896,7.459-11.084c3.164-3.186,6.816-5.693,10.961-7.523c4.143-1.83,8.625-2.746,13.447-2.746h18.08
		c6.629,0,11.563,1.594,14.801,4.779c3.237,3.188,4.858,6.949,4.858,11.287v83.585L301.728,174.326z"/>
	<path display="inline" fill="#58595B" stroke="#000000" d="M410.884,174.123v-6.508c-1.354,0.543-2.713,1.186-4.068,1.932
		c-1.356,0.746-3.164,1.459-5.425,2.137c-2.26,0.678-5.159,1.254-8.7,1.729s-8.099,0.711-13.673,0.711
		c-6.631,0-11.678-1.422-15.143-4.271c-3.465-2.848-5.197-6.438-5.197-10.778v-49.217c0-4.881,0.902-9.424,2.711-13.627
		c1.81-4.203,4.295-7.896,7.459-11.084c3.164-3.186,6.816-5.693,10.961-7.523c4.144-1.83,8.625-2.746,13.447-2.746h18.081
		c6.629,0,11.563,1.594,14.801,4.779c3.238,3.188,4.859,6.949,4.859,11.287v83.18L410.884,174.123L410.884,174.123z M411.337,87.689
		c-3.467,0-6.368-0.033-8.704-0.102c-2.336-0.069-4.481,0-6.438,0.203c-1.959,0.203-3.769,0.611-5.425,1.221
		c-1.657,0.609-3.391,1.592-5.198,2.947c-2.563,1.764-4.259,3.967-5.086,6.611c-0.828,2.644-1.242,5.525-1.242,8.643v53.896
		c3.918,0.406,8.174,0.508,12.77,0.305c4.595-0.203,8.699-1.523,12.316-3.965c3.014-2.033,4.936-4.271,5.764-6.711
		c0.828-2.441,1.244-5.355,1.244-8.746V87.689L411.337,87.689z"/>
	<path display="inline" stroke="#45454A" d="M571.003,153.176c-1.883,4.203-4.406,7.865-7.57,10.982
		c-3.164,3.119-6.855,5.594-11.074,7.424c-4.221,1.83-8.738,2.744-13.561,2.744h-8.137c-3.465,0-6.592-0.475-9.379-1.424
		c-2.789-0.949-5.01-2.236-6.666-3.863c-2.713,1.627-5.65,2.914-8.814,3.863s-6.404,1.424-9.719,1.424h-8.361
		c-6.479,0-11.414-1.559-14.805-4.678c-3.391-3.117-5.084-6.914-5.084-11.39V75.08h19.889v86.637c3.768,0,6.969-0.135,9.605-0.406
		c2.637-0.27,5.01-1.287,7.119-3.051c2.41-1.898,3.916-4.236,4.52-7.016s0.904-5.797,0.904-9.051V75.08h20.791v86.637
		c3.766,0,6.969-0.135,9.605-0.406c2.637-0.27,5.01-1.287,7.119-3.051c2.41-1.898,3.916-4.236,4.52-7.016
		c0.602-2.779,0.904-5.797,0.904-9.051V75.08h21.02v64.672C573.83,144.498,572.886,148.973,571.003,153.176z"/>
	<path display="inline" stroke="#45454A" d="M661.742,174.123v-6.508c-1.355,0.543-2.713,1.186-4.068,1.932
		s-3.164,1.459-5.424,2.137s-5.16,1.254-8.701,1.729s-8.098,0.711-13.672,0.711c-6.631,0-11.678-1.422-15.143-4.271
		c-3.467-2.848-5.197-6.438-5.197-10.778v-49.217c0-4.881,0.9-9.424,2.711-13.627c1.809-4.203,4.295-7.896,7.459-11.084
		c3.164-3.186,6.814-5.693,10.961-7.523c4.143-1.83,8.625-2.746,13.447-2.746h18.08c6.629,0,11.563,1.594,14.801,4.779
		c3.238,3.188,4.859,6.949,4.859,11.287v83.18L661.742,174.123L661.742,174.123z M662.195,87.689c-3.469,0-6.367-0.033-8.703-0.102
		c-2.336-0.069-4.482,0-6.439,0.203c-1.959,0.203-3.768,0.611-5.424,1.221c-1.658,0.609-3.391,1.592-5.199,2.947
		c-2.563,1.764-4.258,3.967-5.086,6.611s-1.242,5.525-1.242,8.643v53.896c3.918,0.406,8.174,0.508,12.77,0.305
		c4.594-0.203,8.699-1.523,12.316-3.965c3.014-2.033,4.936-4.271,5.764-6.711c0.828-2.441,1.244-5.355,1.244-8.746V87.689
		L662.195,87.689z"/>
	<path display="inline" stroke="#45454A" d="M789.203,186.123c-1.811,4.203-4.293,7.863-7.457,10.982
		c-3.164,3.114-6.855,5.59-11.074,7.422c-4.219,1.83-8.814,2.746-13.785,2.746h-17.629V194.46c3.314,0,6.139,0.033,8.475,0.103
		c2.336,0.065,4.445,0,6.328-0.203s3.617-0.611,5.199-1.221c1.582-0.611,3.275-1.527,5.084-2.746c2.711-1.763,4.557-4,5.537-6.711
		c0.979-2.714,1.469-5.627,1.469-8.744v-3.256c-4.973,1.897-9.869,2.848-14.689,2.848h-17.629c-6.629,0-11.604-1.56-14.916-4.678
		c-3.314-3.117-4.973-6.914-4.973-11.39V75.08h19.889v86.84c3.313,0,6.102,0,8.361,0c2.41,0,4.559-0.102,6.439-0.305
		c1.883-0.203,3.617-0.609,5.199-1.219c1.582-0.61,3.275-1.525,5.084-2.746c2.561-1.898,4.369-4.103,5.424-6.609
		s1.582-5.391,1.582-8.645V75.08l20.793,0.203v97.213C791.916,177.377,791.011,181.92,789.203,186.123z"/>
	<g display="inline">
		<path fill="#00B3EB" d="M153.592,44.494v2.234h-13.15V26.399h12.867v2.234h-10.321v6.463h8.191v2.07h-8.191v7.327L153.592,44.494
			L153.592,44.494z"/>
		<path fill="#00B3EB" d="M172.622,26.399l-5.701,9.306l6.52,11.023h-2.88l-5.128-8.664l-5.339,8.664h-2.363l6.51-10.519
			l-5.795-9.81h2.846l4.456,7.515l4.563-7.515H172.622z"/>
		<path fill="#00B3EB" d="M190.565,39.893l2.323,0.521c-1.112,4.488-3.624,6.731-7.536,6.731c-2.571,0-4.589-1.038-6.054-3.115
			c-1.465-2.077-2.196-4.63-2.196-7.66c0-3.13,0.764-5.643,2.293-7.541c1.529-1.897,3.58-2.847,6.151-2.847
			c3.813,0,6.26,2.18,7.342,6.538l-2.398,0.477c-0.874-3.237-2.527-4.855-4.959-4.855c-1.797,0-3.189,0.752-4.177,2.256
			s-1.482,3.616-1.482,6.337c0,2.492,0.507,4.49,1.52,5.994c1.013,1.504,2.353,2.256,4.021,2.256
			C188.004,44.985,189.721,43.288,190.565,39.893z"/>
		<path fill="#00B3EB" d="M212.245,44.494v2.234h-13.15V26.399h12.867v2.234h-10.32v6.463h8.191v2.07h-8.191v7.327L212.245,44.494
			L212.245,44.494z"/>
		<path fill="#00B3EB" d="M230.858,44.494v2.234h-12.003V26.399h2.606v18.095H230.858z"/>
		<path fill="#00B3EB" d="M248.846,44.494v2.234h-12.003V26.399h2.606v18.095H248.846z"/>
		<path fill="#00B3EB" d="M267.98,44.494v2.234h-13.15V26.399h12.867v2.234h-10.321v6.463h8.191v2.07h-8.191v7.327L267.98,44.494
			L267.98,44.494z"/>
		<path fill="#00B3EB" d="M289.556,46.728h-2.472L276.57,29.006l0.03,1.34c0.03,0.506,0.045,0.933,0.045,1.281v15.101h-2.056V26.399
			h3.188l9.829,16.566l-0.03-1.414c-0.02-0.556-0.029-1.046-0.029-1.473V26.399h2.01L289.556,46.728L289.556,46.728z"/>
		<path fill="#00B3EB" d="M303.82,46.728h-2.546V28.634h-5.823V26.4h14.207v2.234h-5.838V46.728z"/>
		<path fill="#00B3EB" d="M323.979,41.352l2.295-0.521c0.923,2.77,2.924,4.155,6.001,4.155c1.607,0,2.819-0.341,3.634-1.023
			c0.813-0.682,1.221-1.597,1.221-2.742c0-0.867-0.31-1.564-0.93-2.092c-0.621-0.528-1.337-0.892-2.151-1.091l-4.066-1.003
			c-1.053-0.268-1.914-0.594-2.584-0.977c-0.671-0.383-1.238-0.972-1.705-1.768c-0.468-0.796-0.7-1.705-0.7-2.729
			c0-1.7,0.641-3.055,1.921-4.064c1.28-1.009,2.924-1.514,4.929-1.514c3.693,0,6.121,1.673,7.283,5.019l-2.308,0.685
			c-0.27-1.191-0.899-2.092-1.893-2.703c-0.993-0.61-2.05-0.916-3.172-0.916c-1.112,0-2.103,0.294-2.971,0.883
			c-0.869,0.588-1.304,1.421-1.304,2.499c0,1.506,1.102,2.523,3.304,3.052l3.801,0.891c3.475,0.834,5.213,2.706,5.213,5.616
			c0,1.758-0.653,3.22-1.958,4.387c-1.306,1.167-3.145,1.75-5.518,1.75C328.109,47.145,325.329,45.214,323.979,41.352z"/>
		<path fill="#00B3EB" d="M353.642,47.145c-2.61,0-4.646-1.016-6.105-3.048c-1.459-2.031-2.189-4.522-2.189-7.474
			c0-3.08,0.766-5.624,2.294-7.63c1.529-2.007,3.555-3.011,6.076-3.011c2.512,0,4.527,0.986,6.046,2.958
			c1.521,1.972,2.279,4.458,2.279,7.459c0,2.881-0.737,5.393-2.211,7.534C358.355,46.075,356.293,47.145,353.642,47.145z
			 M353.702,45.075c1.776,0,3.167-0.81,4.17-2.43s1.504-3.707,1.504-6.261c0-2.623-0.519-4.665-1.557-6.126
			s-2.415-2.191-4.134-2.191c-1.736,0-3.116,0.79-4.14,2.37c-1.022,1.58-1.534,3.647-1.534,6.201c0,2.495,0.517,4.524,1.549,6.089
			C350.594,44.292,351.974,45.075,353.702,45.075z"/>
		<path fill="#00B3EB" d="M380.923,44.494v2.234h-12.004V26.399h2.606v18.095H380.923z"/>
		<path fill="#00B3EB" d="M398.031,26.399h2.113v13.279c0,2.663-0.651,4.573-1.957,5.73c-1.307,1.158-3.017,1.736-5.132,1.736
			c-2.353,0-4.095-0.596-5.227-1.788s-1.698-3.085-1.698-5.678V26.399h2.547v13.28c0,1.58,0.185,2.693,0.551,3.339
			c0.367,0.646,0.924,1.123,1.669,1.431c0.744,0.308,1.523,0.462,2.338,0.462c1.568,0,2.76-0.412,3.573-1.237
			c0.814-0.825,1.223-2.156,1.223-3.995V26.399z"/>
		<path fill="#00B3EB" d="M414.112,46.728h-2.547V28.634h-5.823V26.4h14.208v2.234h-5.838V46.728z"/>
		<path fill="#00B3EB" d="M428.376,46.728h-2.547V26.399h2.547V46.728z"/>
		<path fill="#00B3EB" d="M443.519,47.145c-2.609,0-4.646-1.016-6.105-3.048c-1.459-2.031-2.189-4.522-2.189-7.474
			c0-3.08,0.766-5.624,2.295-7.63c1.527-2.007,3.555-3.011,6.076-3.011c2.512,0,4.527,0.986,6.045,2.958
			c1.521,1.972,2.279,4.458,2.279,7.459c0,2.881-0.736,5.393-2.211,7.534S446.169,47.145,443.519,47.145z M443.58,45.075
			c1.775,0,3.166-0.81,4.17-2.43c1.002-1.62,1.504-3.707,1.504-6.261c0-2.623-0.52-4.665-1.557-6.126s-2.416-2.191-4.133-2.191
			c-1.738,0-3.117,0.79-4.141,2.37s-1.535,3.647-1.535,6.201c0,2.495,0.518,4.524,1.551,6.089
			C440.47,44.292,441.851,45.075,443.58,45.075z"/>
		<path fill="#00B3EB" d="M473.763,46.728h-2.473l-10.514-17.722l0.027,1.34c0.031,0.506,0.045,0.933,0.045,1.281v15.101h-2.055
			V26.399h3.188l9.828,16.566l-0.027-1.414c-0.021-0.556-0.031-1.046-0.031-1.473V26.399h2.012V46.728L473.763,46.728z"/>
		<path fill="#00B3EB" d="M479.658,41.352l2.293-0.521c0.924,2.77,2.924,4.155,6.002,4.155c1.607,0,2.82-0.341,3.635-1.023
			c0.813-0.682,1.221-1.597,1.221-2.742c0-0.867-0.311-1.564-0.932-2.092c-0.619-0.528-1.336-0.892-2.15-1.091l-4.066-1.003
			c-1.053-0.268-1.914-0.594-2.584-0.977c-0.67-0.383-1.238-0.972-1.705-1.768s-0.699-1.705-0.699-2.729
			c0-1.7,0.641-3.055,1.92-4.064c1.281-1.009,2.926-1.514,4.932-1.514c3.691,0,6.119,1.673,7.281,5.019l-2.309,0.685
			c-0.27-1.191-0.898-2.092-1.891-2.703c-0.994-0.61-2.051-0.916-3.174-0.916c-1.111,0-2.102,0.294-2.971,0.883
			c-0.869,0.588-1.303,1.421-1.303,2.499c0,1.506,1.1,2.523,3.303,3.052l3.801,0.891c3.477,0.834,5.213,2.706,5.213,5.616
			c0,1.758-0.652,3.22-1.959,4.387s-3.145,1.75-5.518,1.75C483.789,47.145,481.007,45.214,479.658,41.352z"/>
		<path fill="#00B3EB" d="M515.529,46.728h-2.547V26.399h12.449v2.234h-9.902v6.418h8.205v2.055h-8.205V46.728z"/>
		<path fill="#00B3EB" d="M538.072,47.145c-2.611,0-4.646-1.016-6.105-3.048c-1.459-2.031-2.189-4.522-2.189-7.474
			c0-3.08,0.766-5.624,2.295-7.63c1.527-2.007,3.553-3.011,6.074-3.011c2.514,0,4.527,0.986,6.047,2.958s2.279,4.458,2.279,7.459
			c0,2.881-0.736,5.393-2.213,7.534C542.785,46.074,540.722,47.145,538.072,47.145z M538.132,45.075c1.775,0,3.166-0.81,4.17-2.43
			c1.002-1.62,1.504-3.707,1.504-6.261c0-2.623-0.52-4.665-1.557-6.126s-2.416-2.191-4.133-2.191c-1.738,0-3.117,0.79-4.141,2.37
			s-1.533,3.647-1.533,6.201c0,2.495,0.516,4.524,1.549,6.089C535.023,44.292,536.404,45.075,538.132,45.075z"/>
		<path fill="#00B3EB" d="M567.972,46.728h-2.668l-3.748-8.801h-5.824v8.801h-2.383V26.399h8.012c2.176,0,3.785,0.594,4.834,1.78
			c1.047,1.187,1.57,2.485,1.57,3.895c0,1.082-0.293,2.12-0.879,3.113s-1.555,1.703-2.904,2.129L567.972,46.728z M555.732,35.856
			h5.314c1.4,0,2.445-0.37,3.135-1.109c0.691-0.739,1.035-1.646,1.035-2.718c0-1.072-0.365-1.906-1.094-2.502
			c-0.73-0.596-1.65-0.894-2.764-0.894h-5.629v7.223H555.732z"/>
		<path fill="#00B3EB" d="M585.765,46.728V26.399h6.82c2.869,0,5.104,0.978,6.701,2.934s2.396,4.349,2.396,7.178
			c0,2.869-0.777,5.29-2.338,7.26c-1.559,1.97-3.535,2.956-5.928,2.956L585.765,46.728L585.765,46.728z M588.312,44.568h4.125
			c2.184,0,3.842-0.754,4.975-2.264c1.131-1.509,1.697-3.5,1.697-5.972c0-2.005-0.539-3.808-1.615-5.406
			c-1.078-1.598-2.764-2.397-5.057-2.397h-4.125V44.568L588.312,44.568z"/>
		<path fill="#00B3EB" d="M620.789,26.399l-6.807,11.78v8.548h-2.547V38.18l-6.807-11.78h3.012l5.396,9.34l5.43-9.34L620.789,26.399
			L620.789,26.399z"/>
		<path fill="#00B3EB" d="M641.054,46.728h-2.473l-10.514-17.722l0.027,1.34c0.031,0.506,0.045,0.933,0.045,1.281v15.101h-2.055
			V26.399h3.188l9.828,16.566l-0.027-1.414c-0.021-0.556-0.031-1.046-0.031-1.473V26.399h2.012V46.728L641.054,46.728z"/>
		<path fill="#00B3EB" d="M662.871,46.728h-2.6l-2.045-5.942h-7.543l-1.818,5.942h-2.129l6.604-20.329h2.881L662.871,46.728z
			 M657.685,38.88l-3.148-9.77l-3.146,9.77H657.685z"/>
		<path fill="#00B3EB" d="M688.197,46.728h-2.473V28.976l-6.598,17.752h-1.729l-6.672-17.752v17.752h-2.158V26.399h3.77
			l6.143,16.259l5.994-16.259h3.723V46.728z"/>
		<path fill="#00B3EB" d="M698.873,46.728h-2.547V26.399h2.547V46.728z"/>
		<path fill="#00B3EB" d="M719.183,39.893l2.322,0.521c-1.111,4.488-3.623,6.731-7.535,6.731c-2.57,0-4.59-1.038-6.053-3.115
			c-1.465-2.077-2.197-4.63-2.197-7.66c0-3.13,0.766-5.643,2.293-7.541c1.529-1.897,3.58-2.847,6.15-2.847
			c3.813,0,6.26,2.18,7.342,6.538l-2.396,0.477c-0.873-3.237-2.525-4.855-4.959-4.855c-1.797,0-3.189,0.752-4.178,2.256
			s-1.48,3.616-1.48,6.337c0,2.492,0.506,4.49,1.518,5.994c1.014,1.504,2.355,2.256,4.021,2.256
			C716.621,44.985,718.339,43.288,719.183,39.893z"/>
		<path fill="#00B3EB" d="M725.478,41.352l2.295-0.521c0.924,2.77,2.924,4.155,6.002,4.155c1.607,0,2.818-0.341,3.635-1.023
			c0.813-0.682,1.221-1.597,1.221-2.742c0-0.867-0.311-1.564-0.932-2.092c-0.619-0.528-1.336-0.892-2.15-1.091l-4.066-1.003
			c-1.053-0.268-1.914-0.594-2.584-0.977c-0.67-0.383-1.238-0.972-1.705-1.768s-0.699-1.705-0.699-2.729
			c0-1.7,0.641-3.055,1.92-4.064c1.281-1.009,2.926-1.514,4.93-1.514c3.693,0,6.121,1.673,7.283,5.019l-2.309,0.685
			c-0.27-1.191-0.898-2.092-1.893-2.703c-0.992-0.61-2.049-0.916-3.172-0.916c-1.111,0-2.104,0.294-2.971,0.883
			c-0.869,0.588-1.305,1.421-1.305,2.499c0,1.506,1.102,2.523,3.305,3.052l3.801,0.891c3.475,0.834,5.213,2.706,5.213,5.616
			c0,1.758-0.654,3.22-1.959,4.387c-1.307,1.167-3.145,1.75-5.518,1.75C729.611,47.145,726.83,45.214,725.478,41.352z"/>
		<path fill="#00B3EB" d="M772.494,46.728h-2.6l-2.045-5.942h-7.543l-1.818,5.942h-2.129l6.604-20.329h2.881L772.494,46.728z
			 M767.308,38.88l-3.148-9.77l-3.146,9.77H767.308z"/>
		<path fill="#00B3EB" d="M790.611,26.399l-5.699,9.306l6.52,11.023h-2.881l-5.129-8.664l-5.338,8.664h-2.365l6.51-10.519
			l-5.795-9.81h2.848l4.457,7.515l4.563-7.515H790.611z"/>
	</g>
</g>
<g id="Layer_7_copy">
	<path fill="#00B3EB" d="M101.944,153.074c-1.959,4.137-4.596,7.764-7.91,10.881c-3.314,3.119-7.193,5.594-11.639,7.424
		s-9.152,2.744-14.125,2.744H51.547c-6.631,0-11.678-1.422-15.143-4.27c-3.465-2.849-5.197-6.439-5.197-10.779v-49.217
		c0-4.881,0.902-9.424,2.711-13.627s4.295-7.896,7.459-11.084c3.164-3.186,6.816-5.693,10.961-7.523
		c4.143-1.83,8.625-2.746,13.447-2.746h18.531V27.49l20.566-0.203v112.668C104.883,144.566,103.903,148.939,101.944,153.074z
		 M83.866,87.689c-3.467,0-6.367-0.033-8.703-0.102c-2.336-0.069-4.482,0-6.439,0.203c-1.959,0.203-3.768,0.611-5.424,1.221
		c-1.658,0.609-3.391,1.592-5.199,2.947c-2.563,1.764-4.258,3.967-5.086,6.611c-0.828,2.644-1.242,5.525-1.242,8.643v53.896
		c3.918,0.406,8.174,0.508,12.77,0.305c4.594-0.203,8.699-1.523,12.316-3.965c3.014-2.033,4.936-4.271,5.764-6.711
		c0.828-2.441,1.244-5.355,1.244-8.746L83.866,87.689L83.866,87.689z"/>
	<path fill="#00B3EB" d="M210.875,186.123c-1.809,4.203-4.293,7.863-7.457,10.982c-3.164,3.114-6.855,5.59-11.074,7.422
		c-4.219,1.83-8.814,2.746-13.785,2.746H160.93V194.46c3.314,0,6.139,0.033,8.475,0.103c2.336,0.065,4.445,0,6.328-0.203
		c1.883-0.203,3.617-0.611,5.199-1.221c1.582-0.611,3.275-1.527,5.084-2.746c2.711-1.763,4.557-4,5.537-6.711
		c0.979-2.714,1.469-5.627,1.469-8.744v-3.256c-4.973,1.897-9.869,2.848-14.689,2.848h-17.629c-6.629,0-11.602-1.56-14.916-4.678
		c-3.314-3.117-4.971-6.914-4.971-11.39V75.08h19.887v86.84c3.314,0,6.102,0,8.363,0c2.41,0,4.557-0.102,6.439-0.305
		c1.882-0.203,3.617-0.609,5.199-1.219c1.582-0.61,3.275-1.525,5.084-2.746c2.561-1.898,4.369-4.103,5.424-6.609
		c1.055-2.507,1.582-5.391,1.582-8.645V75.08l20.793,0.203v97.213C213.588,177.377,212.684,181.92,210.875,186.123z"/>
	<path fill="#00B3EB" d="M301.728,174.326V87.689c-3.467,0-6.367-0.033-8.703-0.102c-2.336-0.069-4.482,0-6.439,0.203
		c-1.959,0.203-3.768,0.611-5.424,1.221c-1.658,0.609-3.391,1.592-5.199,2.947c-2.563,1.764-4.258,3.967-5.086,6.611
		s-1.242,5.525-1.242,8.643v67.113l-20.564-0.203v-64.266c0-4.881,0.902-9.424,2.711-13.627c1.809-4.203,4.295-7.896,7.459-11.084
		c3.164-3.186,6.816-5.693,10.961-7.523c4.143-1.83,8.625-2.746,13.447-2.746h18.08c6.629,0,11.563,1.594,14.801,4.779
		c3.237,3.188,4.858,6.949,4.858,11.287v83.585L301.728,174.326z"/>
	<path fill="#00B3EB" d="M410.884,174.123v-6.508c-1.354,0.543-2.713,1.186-4.068,1.932c-1.356,0.746-3.164,1.459-5.425,2.137
		c-2.26,0.678-5.159,1.254-8.7,1.729s-8.099,0.711-13.673,0.711c-6.631,0-11.678-1.422-15.143-4.271
		c-3.465-2.848-5.197-6.438-5.197-10.778v-49.217c0-4.881,0.902-9.424,2.711-13.627c1.81-4.203,4.295-7.896,7.459-11.084
		c3.164-3.186,6.816-5.693,10.961-7.523c4.144-1.83,8.625-2.746,13.447-2.746h18.081c6.629,0,11.563,1.594,14.801,4.779
		c3.238,3.188,4.859,6.949,4.859,11.287v83.18L410.884,174.123L410.884,174.123z M411.337,87.689c-3.467,0-6.368-0.033-8.704-0.102
		c-2.336-0.069-4.481,0-6.438,0.203c-1.959,0.203-3.769,0.611-5.425,1.221c-1.657,0.609-3.391,1.592-5.198,2.947
		c-2.563,1.764-4.259,3.967-5.086,6.611c-0.828,2.644-1.242,5.525-1.242,8.643v53.896c3.918,0.406,8.174,0.508,12.77,0.305
		c4.595-0.203,8.699-1.523,12.316-3.965c3.014-2.033,4.936-4.271,5.764-6.711c0.828-2.441,1.244-5.355,1.244-8.746V87.689
		L411.337,87.689z"/>
	<path fill="#006595" d="M571.003,153.176c-1.883,4.203-4.406,7.865-7.57,10.982c-3.164,3.119-6.855,5.594-11.074,7.424
		c-4.221,1.83-8.738,2.744-13.561,2.744h-8.137c-3.465,0-6.592-0.475-9.379-1.424c-2.789-0.949-5.01-2.236-6.666-3.863
		c-2.713,1.627-5.65,2.914-8.814,3.863s-6.404,1.424-9.719,1.424h-8.361c-6.479,0-11.414-1.559-14.805-4.678
		c-3.391-3.117-5.084-6.914-5.084-11.39V75.08h19.889v86.637c3.768,0,6.969-0.135,9.605-0.406c2.637-0.27,5.01-1.287,7.119-3.051
		c2.41-1.898,3.916-4.236,4.52-7.016s0.904-5.797,0.904-9.051V75.08h20.791v86.637c3.766,0,6.969-0.135,9.605-0.406
		c2.637-0.27,5.01-1.287,7.119-3.051c2.41-1.898,3.916-4.236,4.52-7.016c0.602-2.779,0.904-5.797,0.904-9.051V75.08h21.02v64.672
		C573.83,144.498,572.886,148.973,571.003,153.176z"/>
	<path fill="#006595" d="M661.742,174.123v-6.508c-1.355,0.543-2.713,1.186-4.068,1.932s-3.164,1.459-5.424,2.137
		s-5.16,1.254-8.701,1.729s-8.098,0.711-13.672,0.711c-6.631,0-11.678-1.422-15.143-4.271c-3.467-2.848-5.197-6.438-5.197-10.778
		v-49.217c0-4.881,0.9-9.424,2.711-13.627c1.809-4.203,4.295-7.896,7.459-11.084c3.164-3.186,6.814-5.693,10.961-7.523
		c4.143-1.83,8.625-2.746,13.447-2.746h18.08c6.629,0,11.563,1.594,14.801,4.779c3.238,3.188,4.859,6.949,4.859,11.287v83.18
		L661.742,174.123L661.742,174.123z M662.195,87.689c-3.469,0-6.367-0.033-8.703-0.102c-2.336-0.069-4.482,0-6.439,0.203
		c-1.959,0.203-3.768,0.611-5.424,1.221c-1.658,0.609-3.391,1.592-5.199,2.947c-2.563,1.764-4.258,3.967-5.086,6.611
		s-1.242,5.525-1.242,8.643v53.896c3.918,0.406,8.174,0.508,12.77,0.305c4.594-0.203,8.699-1.523,12.316-3.965
		c3.014-2.033,4.936-4.271,5.764-6.711c0.828-2.441,1.244-5.355,1.244-8.746V87.689L662.195,87.689z"/>
	<path fill="#006595" d="M789.203,186.123c-1.811,4.203-4.293,7.863-7.457,10.982c-3.164,3.114-6.855,5.59-11.074,7.422
		c-4.219,1.83-8.814,2.746-13.785,2.746h-17.629V194.46c3.314,0,6.139,0.033,8.475,0.103c2.336,0.065,4.445,0,6.328-0.203
		s3.617-0.611,5.199-1.221c1.582-0.611,3.275-1.527,5.084-2.746c2.711-1.763,4.557-4,5.537-6.711
		c0.979-2.714,1.469-5.627,1.469-8.744v-3.256c-4.973,1.897-9.869,2.848-14.689,2.848h-17.629c-6.629,0-11.604-1.56-14.916-4.678
		c-3.314-3.117-4.973-6.914-4.973-11.39V75.08h19.889v86.84c3.313,0,6.102,0,8.361,0c2.41,0,4.559-0.102,6.439-0.305
		c1.883-0.203,3.617-0.609,5.199-1.219c1.582-0.61,3.275-1.525,5.084-2.746c2.561-1.898,4.369-4.103,5.424-6.609
		s1.582-5.391,1.582-8.645V75.08l20.793,0.203v97.213C791.916,177.377,791.011,181.92,789.203,186.123z"/>
</g>
</svg>
